<svg version="1.1" id="Layer_1" xmlns="http://www.w3.org/2000/svg" xmlns:xlink="http://www.w3.org/1999/xlink" x="0px" y="0px"
	 width="100%" viewBox="0 0 734 753" enable-background="new 0 0 734 753" xml:space="preserve">
<path fill="#FFFEFF" opacity="1.000000" stroke="none" 
	d="
M346.000000,754.000000 
	C231.016373,754.000000 116.032753,754.000000 1.024563,754.000000 
	C1.024563,503.052124 1.024563,252.104233 1.024563,1.078175 
	C245.579697,1.078175 490.159424,1.078175 734.869568,1.078175 
	C734.869568,251.877243 734.869568,502.754578 734.869568,754.000000 
	C607.641052,754.000000 480.281799,754.000000 352.546387,753.659607 
	C371.320404,715.249634 390.434143,677.161621 409.695068,639.148254 
	C411.118561,636.338745 410.632812,634.313049 409.376068,631.767639 
	C366.335022,544.593140 323.355286,457.388397 280.361084,370.190765 
	C228.973312,265.969910 177.558960,161.762085 126.279747,57.487823 
	C124.499046,53.866844 122.667290,52.408173 118.489014,52.433514 
	C86.828011,52.625519 55.165257,52.528851 23.503052,52.522289 
	C21.923311,52.521961 20.343569,52.522247 18.141081,52.522247 
	C19.127396,54.793793 19.738115,56.300045 20.425880,57.770248 
	C111.422760,252.289749 202.431366,446.803741 293.422363,641.325989 
	C310.983093,678.867737 328.475861,716.441162 346.000000,754.000000 
M683.662170,93.112450 
	C690.329834,79.812454 696.997498,66.512459 703.885010,52.773922 
	C533.740417,52.773922 364.490326,52.773922 194.788193,52.773922 
	C195.413330,54.366985 195.824249,55.593605 196.363129,56.761181 
	C210.875900,88.205353 225.490036,119.603386 239.811996,151.134155 
	C241.571396,155.007614 243.685013,155.973679 247.651718,155.969177 
	C340.984863,155.863541 434.318146,155.884933 527.651428,155.883026 
	C530.209839,155.882965 532.768250,155.883011 535.924500,155.883011 
	C534.874512,158.226685 534.254944,159.736008 533.535889,161.196335 
	C484.552338,260.673676 435.579254,360.156189 386.490967,459.581818 
	C384.825806,462.954437 384.961395,465.512115 386.511353,468.839020 
	C403.315521,504.907684 419.947388,541.056641 436.640564,577.177063 
	C437.144043,578.266479 437.802948,579.284058 438.645569,580.794312 
	C439.655823,578.961731 440.412933,577.691528 441.074585,576.373352 
	C483.507843,491.833374 525.931458,407.288574 568.359985,322.746246 
	C606.667236,246.415955 644.979065,170.088013 683.662170,93.112450 
z"/>
<path fill="#242021" opacity="1.000000" stroke="none" 
	d="
M346.428467,754.000000 
	C328.475861,716.441162 310.983093,678.867737 293.422363,641.325989 
	C202.431366,446.803741 111.422760,252.289749 20.425880,57.770248 
	C19.738115,56.300045 19.127396,54.793793 18.141081,52.522247 
	C20.343569,52.522247 21.923311,52.521961 23.503052,52.522289 
	C55.165257,52.528851 86.828011,52.625519 118.489014,52.433514 
	C122.667290,52.408173 124.499046,53.866844 126.279747,57.487823 
	C177.558960,161.762085 228.973312,265.969910 280.361084,370.190765 
	C323.355286,457.388397 366.335022,544.593140 409.376068,631.767639 
	C410.632812,634.313049 411.118561,636.338745 409.695068,639.148254 
	C390.434143,677.161621 371.320404,715.249634 352.085144,753.659607 
	C350.285645,754.000000 348.571289,754.000000 346.428467,754.000000 
z"/>
<path fill="#242021" opacity="1.000000" stroke="none" 
	d="
M683.475464,93.435730 
	C644.979065,170.088013 606.667236,246.415955 568.359985,322.746246 
	C525.931458,407.288574 483.507843,491.833374 441.074585,576.373352 
	C440.412933,577.691528 439.655823,578.961731 438.645569,580.794312 
	C437.802948,579.284058 437.144043,578.266479 436.640564,577.177063 
	C419.947388,541.056641 403.315521,504.907684 386.511353,468.839020 
	C384.961395,465.512115 384.825806,462.954437 386.490967,459.581818 
	C435.579254,360.156189 484.552338,260.673676 533.535889,161.196335 
	C534.254944,159.736008 534.874512,158.226685 535.924500,155.883011 
	C532.768250,155.883011 530.209839,155.882965 527.651428,155.883026 
	C434.318146,155.884933 340.984863,155.863541 247.651718,155.969177 
	C243.685013,155.973679 241.571396,155.007614 239.811996,151.134155 
	C225.490036,119.603386 210.875900,88.205353 196.363129,56.761181 
	C195.824249,55.593605 195.413330,54.366985 194.788193,52.773922 
	C364.490326,52.773922 533.740417,52.773922 703.885010,52.773922 
	C696.997498,66.512459 690.329834,79.812454 683.475464,93.435730 
z"/>
</svg>